HIERARCHY
ROOT Hips
{
	OFFSET	0.00	0.00	0.00
	CHANNELS 6 Xposition Yposition Zposition Zrotation Xrotation Yrotation
	JOINT LeftUpLeg
	{
		OFFSET	 0.126116	-0.014019	-0.065224
		CHANNELS 3 Zrotation Xrotation Yrotation
		JOINT LeftLeg
		{
			OFFSET	 0.000000	 0.000000	 0.569914
			CHANNELS 3 Zrotation Xrotation Yrotation
			JOINT LeftFoot
			{
				OFFSET	 0.000000	 0.000000	 0.544423
				CHANNELS 3 Zrotation Xrotation Yrotation
				JOINT LeftToeBase
				{
					OFFSET	 0.000000	 0.000000	 0.207117
					CHANNELS 3 Zrotation Xrotation Yrotation
					End Site
					{
						OFFSET	 0.000000	 0.000000	 0.207117
					}
				}
			}
		}
	}
	JOINT RightUpLeg
	{
		OFFSET	-0.124023	-0.008373	-0.065224
		CHANNELS 3 Zrotation Xrotation Yrotation
		JOINT RightLeg
		{
			OFFSET	 0.000000	 0.000000	 0.570047
			CHANNELS 3 Zrotation Xrotation Yrotation
			JOINT RightFoot
			{
				OFFSET	 0.000000	 0.000000	 0.544354
				CHANNELS 3 Zrotation Xrotation Yrotation
				JOINT RightToeBase
				{
					OFFSET	 0.000000	 0.000000	 0.207540
					CHANNELS 3 Zrotation Xrotation Yrotation
					End Site
					{
						OFFSET	 0.000000	 0.000000	 0.207540
					}
				}
			}
		}
	}
	JOINT Spine
	{
		OFFSET	 0.000184	-0.007763	 0.117403
		CHANNELS 3 Zrotation Xrotation Yrotation
		JOINT Spine1
		{
			OFFSET	 0.000000	 0.000000	 0.137269
			CHANNELS 3 Zrotation Xrotation Yrotation
			JOINT Spine2
			{
				OFFSET	 0.000000	 0.000000	 0.156879
				CHANNELS 3 Zrotation Xrotation Yrotation
				JOINT LeftShoulder
				{
					OFFSET	 0.080501	-0.002496	 0.160144
					CHANNELS 3 Zrotation Xrotation Yrotation
					JOINT LeftArm
					{
						OFFSET	 0.000000	 0.000000	 0.164363
						CHANNELS 3 Zrotation Xrotation Yrotation
						JOINT LeftForeArm
						{
							OFFSET	 0.000000	 0.000000	 0.364576
							CHANNELS 3 Zrotation Xrotation Yrotation
							JOINT LeftHand
							{
								OFFSET	 0.000000	 0.000000	 0.360812
								CHANNELS 3 Zrotation Xrotation Yrotation
								JOINT LeftHandIndex1
								{
									OFFSET	 0.000000	 0.000000	 0.086006
									CHANNELS 3 Zrotation Xrotation Yrotation
									JOINT LeftHandIndex2
									{
										OFFSET	 0.000000	 0.000000	 0.047237
										CHANNELS 3 Zrotation Xrotation Yrotation
										JOINT LeftHandIndex3
										{
											OFFSET	-0.004284	-0.000551	 0.038165
											CHANNELS 3 Zrotation Xrotation Yrotation
											End Site
											{
												OFFSET	-0.004284	-0.000551	 0.038165
											}
										}
									}
								}
							}
						}
					}
				}
				JOINT Neck
				{
					OFFSET	 0.000000	 0.000000	 0.176489
					CHANNELS 3 Zrotation Xrotation Yrotation
					JOINT Head
					{
						OFFSET	 0.000000	-0.001747	 0.077940
						CHANNELS 3 Zrotation Xrotation Yrotation
						End Site
						{
							OFFSET	 0.000000	-0.001747	 0.077940
						}
					}
				}
				JOINT RightShoulder
				{
					OFFSET	-0.080363	 0.000306	 0.159706
					CHANNELS 3 Zrotation Xrotation Yrotation
					JOINT RightArm
					{
						OFFSET	 0.000000	 0.000000	 0.164196
						CHANNELS 3 Zrotation Xrotation Yrotation
						JOINT RightForeArm
						{
							OFFSET	 0.000000	 0.000000	 0.365611
							CHANNELS 3 Zrotation Xrotation Yrotation
							JOINT RightHand
							{
								OFFSET	 0.000000	 0.000000	 0.360648
								CHANNELS 3 Zrotation Xrotation Yrotation
								JOINT RightHandIndex1
								{
									OFFSET	 0.000000	 0.000000	 0.069977
									CHANNELS 3 Zrotation Xrotation Yrotation
									JOINT RightHandIndex2
									{
										OFFSET	 0.000000	 0.000000	 0.052305
										CHANNELS 3 Zrotation Xrotation Yrotation
										JOINT RightHandIndex3
										{
											OFFSET	 0.009002	-0.000782	 0.042196
											CHANNELS 3 Zrotation Xrotation Yrotation
											End Site
											{
												OFFSET	 0.009002	-0.000782	 0.042196
											}
										}
									}
								}
							}
						}
					}
				}
			}
		}
	}
}
MOTION
Frames:    13
Frame Time: 0.03333334
-0.707552	-1.655773	 1.271764	-176.110400	 4.776724	-4.750231	-3.206954	-5.952191	-177.526600	-0.464965	-10.974750	 0.283182	-20.484640	 53.831220	 10.934350	-2.385833	 28.452760	 0.000004	-0.915680	-11.760610	-175.308200	-5.228627	-20.597900	 2.001084	-0.435608	 84.149640	 10.856430	 2.384659	 28.388700	-0.000001	-21.375400	 7.928936	 8.483777	-11.890200	-12.490370	-9.071120	 24.728500	-5.167159	 1.153001	-91.776150	 78.527360	 180.000000	-33.361260	 3.105114	 7.086601	-7.941002	-5.609648	-38.169080	 7.339977	-3.339217	-4.150976	-4.131196	 21.524690	 0.986298	-5.167839	 0.733520	 3.519257	-1.378229	 35.397820	-2.634230	 1.520777	 8.088391	 0.827594	-7.230336	-9.644609	-2.894386	 89.782170	 78.203870	 179.999900	-27.558530	-6.738448	-10.317990	-2.969950	-13.528510	 39.657130	-19.930980	 30.877370	 117.947500	 5.715225	 19.176060	-3.692089	 5.027514	 0.245388	-9.378011	-2.350882	 35.473990	 5.254307
-0.706698	-1.654668	 1.271500	-176.071600	 4.699679	-4.851503	-3.175035	-6.213140	-177.567500	-0.190486	-12.037260	 0.367497	-21.254980	 54.007600	 11.670580	-2.385833	 28.452760	 0.000004	-0.415856	-11.896360	-175.121400	-5.523085	-20.883640	 1.921769	 1.749302	 84.886300	 8.880151	 2.384659	 28.388700	-0.000001	-21.689670	 7.925068	 8.599477	-12.106690	-12.026100	-9.064181	 24.755390	-5.400778	 1.157666	-91.776180	 78.527420	-180.000000	-32.557660	 4.200544	 9.993484	-8.570889	-6.123516	-43.298930	 7.194303	-3.405804	-4.112964	-4.131196	 21.524690	 0.986298	-5.167839	 0.733520	 3.519257	-1.378229	 35.397820	-2.634230	 1.486470	 8.054996	 0.930799	-7.207393	-9.504713	-2.858798	 89.782110	 78.203920	 180.000000	-27.437250	-5.944272	-10.997120	-2.265996	-14.222710	 42.415860	-19.378750	 31.173820	 115.783100	 5.715225	 19.176060	-3.692089	 5.027514	 0.245388	-9.378011	-2.350882	 35.473990	 5.254307
-0.698109	-1.642370	 1.268745	-175.833800	 3.799244	-5.497813	-3.945989	-7.243709	-178.455000	 2.311194	-20.276820	 1.479882	-28.610560	 55.532240	 18.951840	-2.385833	 28.452760	 0.000004	 2.086433	-14.483800	-173.619900	-6.859793	-25.617100	 1.749313	 49.890420	 87.058490	-38.390270	 2.384659	 28.388700	-0.000001	-25.053030	 8.064103	 10.011200	-14.337960	-5.637505	-10.457340	 25.166310	-8.541044	 3.077823	-91.776120	 78.527380	 179.999900	-23.147120	 15.995940	 30.485510	-13.645690	-7.563083	-79.651770	 5.988124	-3.906655	-3.831235	-4.131196	 21.524690	 0.986298	-5.167839	 0.733520	 3.519257	-1.378229	 35.397820	-2.634230	 1.493881	 8.052771	 1.287163	-6.984581	-9.318887	-2.770916	 89.782090	 78.203900	 180.000000	-25.743400	 4.270281	-13.292250	 4.132068	-18.444660	 64.385360	-19.432720	 31.731060	 98.155730	 5.715225	 19.176060	-3.692089	 5.027514	 0.245388	-9.378011	-2.350882	 35.473990	 5.254307
-0.682461	-1.615966	 1.264805	-175.909500	 3.049664	-5.467608	-7.639864	-5.812063	 178.874400	 5.009039	-28.529490	 3.337402	-38.268760	 55.924910	 29.867870	-2.385833	 28.452760	 0.000004	 2.695219	-19.548460	-171.406500	-6.373344	-30.857110	 2.325457	 30.894610	 75.339610	-21.901020	 2.384659	 28.388700	-0.000001	-31.367230	 7.436488	 10.633890	-18.499990	 9.076914	-10.909810	 26.688650	-16.378210	 7.297660	-91.776110	 78.527420	 179.999900	 12.148630	 40.654350	 19.832100	-16.491250	-6.422456	-103.076400	 4.857641	-4.184026	-3.679674	-4.131196	 21.524690	 0.986298	-5.167839	 0.733520	 3.519257	-1.378229	 35.397820	-2.634230	 1.819048	 8.275984	 0.906922	-6.810677	-9.829473	-2.615735	 89.782100	 78.203920	 180.000000	-21.329070	 33.343140	-5.204784	 7.717919	-20.164010	 75.816880	-46.884770	 26.299380	 87.706370	 5.715225	 19.176060	-3.692089	 5.027514	 0.245388	-9.378011	-2.350882	 35.473990	 5.254307
-0.657302	-1.569013	 1.263010	-175.921700	 5.122229	-2.718512	-10.370310	-2.211609	 172.459500	 1.671641	-32.453270	 1.946399	-32.012450	 47.284130	 31.946800	-2.385833	 28.452760	 0.000004	 2.761546	-26.800960	-171.006600	-7.722916	-32.674730	 1.716626	 31.269820	 66.178480	-24.438640	 2.384659	 28.388700	-0.000001	-39.304890	 7.613069	 2.586981	-25.918760	 20.038790	-1.088982	 27.370230	-25.244340	 6.560051	-91.776240	 78.527380	-180.000000	 32.209320	 48.627800	-42.369690	-11.374200	-5.390316	-56.357300	 3.878455	-4.596563	-3.702029	-4.131196	 21.524690	 0.986298	-5.167839	 0.733520	 3.519257	-1.378229	 35.397820	-2.634230	 2.422171	 8.662104	 0.054821	-6.540213	-10.404890	-1.712200	 89.782100	 78.203920	 180.000000	-25.072100	 59.480070	 21.270800	-5.112672	-10.791050	 30.673630	-80.055480	-10.165530	 78.858250	 5.715225	 19.176060	-3.692089	 5.027514	 0.245388	-9.378011	-2.350882	 35.473990	 5.254307
-0.627347	-1.519727	 1.263142	-175.979500	 5.628917	-1.435089	-7.471503	 1.384468	 168.544900	 0.335474	-31.088750	 1.181695	-19.587850	 34.099310	 26.541290	-2.385833	 28.452760	 0.000004	 0.826366	-28.338850	-172.431100	-8.344602	-32.157680	 1.360931	 32.157510	 63.195160	-26.120100	 2.384659	 28.388700	-0.000001	-41.633790	 8.388965	-1.284801	-28.321900	 20.583100	 3.061878	 27.074960	-27.488030	 5.767177	-91.776220	 78.527420	-180.000000	 25.079980	 52.104920	-56.068440	-8.885199	-2.646532	-24.247550	 3.525442	-4.347722	-3.909645	-4.131196	 21.524690	 0.986298	-5.167839	 0.733520	 3.519257	-1.378229	 35.397820	-2.634230	 2.405387	 8.769353	-0.252310	-6.896070	-10.520090	-2.653948	 89.782080	 78.203900	-180.000000	-25.886550	 60.387200	 34.884830	-6.625465	-0.138955	 1.337654	-85.521730	-27.257810	 71.404970	 5.715225	 19.176060	-3.692089	 5.027514	 0.245388	-9.378011	-2.350882	 35.473990	 5.254307
-0.582671	-1.453144	 1.263547	-176.742800	 3.839367	 0.348272	-3.066935	 4.051340	 164.229200	-0.790890	-32.274130	 0.620127	-10.719880	 25.796680	 22.577310	-2.385833	 28.452760	 0.000004	-3.623265	-25.505780	-177.080200	-8.023119	-31.645240	 1.510487	 30.629130	 63.132240	-24.672090	 2.384659	 28.388700	-0.000001	-40.706270	 10.553600	-2.592345	-27.500310	 19.130970	 2.096671	 27.469410	-27.901730	 7.595724	-91.776120	 78.527380	 180.000000	 29.188380	 53.554720	-39.809950	-10.596840	-5.778695	-53.932990	 4.523793	-2.699553	-4.551971	-4.131196	 21.524690	 0.986298	-5.167839	 0.733520	 3.519257	-1.378229	 35.397820	-2.634230	 1.801642	 8.325666	-1.096347	-8.315817	-10.263950	-4.613014	 89.782080	 78.203890	-180.000000	-26.375850	 60.476590	 22.866360	-3.974828	-7.034674	 23.465890	-78.378360	-13.402520	 78.020130	 5.715225	 19.176060	-3.692089	 5.027514	 0.245388	-9.378011	-2.350882	 35.473990	 5.254307
-0.536720	-1.390583	 1.263626	-178.562500	 2.752377	 2.569287	-0.638216	-0.211989	 158.974700	-2.405119	-42.457650	-0.305802	-10.876520	 32.586420	 23.030100	-2.385833	 28.452760	 0.000004	-5.260796	-23.967300	 177.691100	-8.167181	-35.136370	 1.573795	 34.192090	 66.512320	-27.602500	 2.384659	 28.388700	-0.000001	-39.737070	 12.836340	-5.021958	-27.812360	 18.590950	 1.624380	 27.737560	-28.946830	 8.640073	-91.776150	 78.527420	 180.000000	 31.033850	 54.356700	-36.809230	-9.520413	-6.710512	-52.554550	 5.581443	-1.163767	-5.346702	-4.131196	 21.524690	 0.986298	-5.167839	 0.733520	 3.519257	-1.378229	 35.397820	-2.634230	 1.477317	 8.628096	-1.621331	-8.883024	-10.398920	-4.815854	 89.782140	 78.203900	 180.000000	-25.586630	 61.936640	 21.651830	-4.305075	-6.733422	 22.692390	-78.373410	-15.375110	 78.808460	 5.715225	 19.176060	-3.692089	 5.027514	 0.245388	-9.378011	-2.350882	 35.473990	 5.254307
-0.454960	-1.284848	 1.263894	 179.686700	 1.601198	 4.484326	-1.843768	-13.715200	 153.635400	-8.169028	-63.977720	-5.590886	-16.292200	 51.087600	 26.159890	-2.385833	 28.452760	 0.000004	-6.708917	-18.254140	 170.731700	-8.933764	-37.571540	 1.199403	 35.442490	 71.368800	-26.440190	 2.384659	 28.388700	-0.000001	-38.051150	 14.153010	-7.020803	-26.383200	 17.293900	-0.492620	 28.279940	-28.447570	 10.613400	-91.776180	 78.527400	-180.000000	 35.201630	 56.114230	-34.936790	-9.664458	-4.910951	-45.865550	 3.367090	-1.072333	-5.355234	-4.131196	 21.524690	 0.986298	-5.167839	 0.733520	 3.519257	-1.378229	 35.397820	-2.634230	 1.407773	 8.780089	-2.142515	-9.131042	-10.980030	-4.706278	 89.782070	 78.203900	-180.000000	-25.362000	 63.442230	 21.129880	-4.231766	-6.277870	 22.383820	-75.010470	-16.431760	 80.889400	 5.715225	 19.176060	-3.692089	 5.027514	 0.245388	-9.378011	-2.350882	 35.473990	 5.254307
-0.414414	-1.229458	 1.264572	 178.918300	 1.183307	 5.038908	-3.183790	-20.932040	 152.971500	-13.702630	-72.120300	-11.197690	-21.813300	 60.365250	 29.194480	-2.385833	 28.452760	 0.000004	-6.394941	-14.198580	 168.113100	-9.771493	-36.511150	 0.671691	 33.091500	 72.482250	-22.571360	 2.384659	 28.388700	-0.000001	-37.029870	 14.297830	-7.444240	-25.186920	 16.454720	-1.293680	 28.302220	-27.842650	 11.054320	-91.776100	 78.527420	 179.999900	 38.085270	 56.685440	-35.376920	-11.270340	-2.788449	-41.776150	 0.942903	-1.955677	-4.883817	-4.131196	 21.524690	 0.986298	-5.167839	 0.733520	 3.519257	-1.378229	 35.397820	-2.634230	 1.385094	 8.814049	-2.232247	-9.121260	-11.160890	-4.400561	 89.782190	 78.203900	 179.999900	-25.324340	 62.967720	 21.036260	-3.197681	-6.146221	 23.758030	-71.965180	-14.127050	 83.061950	 5.715225	 19.176060	-3.692089	 5.027514	 0.245388	-9.378011	-2.350882	 35.473990	 5.254307
-0.352519	-1.128202	 1.267450	 177.671900	 1.173269	 5.846682	-3.488352	-31.957670	 156.214400	-18.763320	-76.051990	-16.342330	-28.959880	 70.912220	 30.095590	-2.385833	 28.452760	 0.000004	-5.405543	-8.268830	 164.569700	-10.540460	-35.068260	 0.206765	 28.150730	 75.475690	-15.668290	 2.384659	 28.388700	-0.000001	-36.520980	 13.815340	-8.265264	-23.999880	 15.716540	-2.179524	 28.407010	-26.941610	 11.858600	-91.776110	 78.527420	 179.999900	 44.142280	 58.563660	-35.963400	-14.336010	-0.048641	-36.589710	-2.916276	-3.368876	-4.354390	-4.131196	 21.524690	 0.986298	-5.167839	 0.733520	 3.519257	-1.378229	 35.397820	-2.634230	 1.400105	 9.111752	-2.405844	-9.107636	-11.740860	-3.997742	 89.782100	 78.203920	 180.000000	-24.117200	 59.454240	 23.280240	-0.870723	-5.122411	 24.610290	-67.099960	-8.103725	 89.227020	 5.715225	 19.176060	-3.692089	 5.027514	 0.245388	-9.378011	-2.350882	 35.473990	 5.254307
-0.297514	-1.023176	 1.272588	 177.132900	 1.402452	 6.033880	 1.121318	-36.247580	 165.325400	-12.598800	-63.199470	-9.525202	-10.541130	 73.289410	 4.671854	-2.385833	 28.452760	 0.000004	-5.047740	-1.803681	 162.658900	-10.766570	-33.579760	 0.073972	 24.408790	 78.149930	-10.915080	 2.384659	 28.388700	-0.000001	-37.568330	 13.453930	-7.956219	-23.840880	 15.538550	-2.259705	 28.378840	-26.666610	 12.109050	-91.776230	 78.527400	-179.999900	 52.787000	 62.091110	-38.500470	-15.589420	 0.879401	-33.536200	-4.376290	-3.098467	-4.430597	-4.131196	 21.524690	 0.986298	-5.167839	 0.733520	 3.519257	-1.378229	 35.397820	-2.634230	 1.516846	 9.396522	-2.481828	-8.959677	-12.348240	-3.824401	 89.782170	 78.203920	 179.999900	-22.430860	 56.380840	 26.389040	 0.939045	-4.672552	 27.048550	-63.875940	-0.622824	 95.110180	 5.715225	 19.176060	-3.692089	 5.027514	 0.245388	-9.378011	-2.350882	 35.473990	 5.254307
-0.231827	-0.896031	 1.277631	 176.671200	 1.753426	 5.853219	-0.624790	-30.193730	 173.213100	-7.127020	-35.059520	-2.978029	 5.733295	 66.171670	-16.096360	-2.385833	 28.452760	 0.000004	-1.848074	 11.151090	 161.461000	-11.044170	-19.117430	-0.047116	 8.234604	 74.558660	 6.666570	 2.384659	 28.388700	-0.000001	-39.248520	 12.972520	-7.052423	-24.134740	 15.855540	-1.038269	 28.102480	-26.740760	 11.478780	-91.776180	 78.527430	-180.000000	 59.813100	 65.743740	-40.497060	-17.474050	 2.031203	-31.845450	-6.847104	-3.390183	-4.403724	-4.131196	 21.524690	 0.986298	-5.167839	 0.733520	 3.519257	-1.378229	 35.397820	-2.634230	 1.746814	 8.954637	-2.793255	-8.816071	-12.156100	-3.038410	 89.782120	 78.203920	 180.000000	-21.210570	 53.457950	 28.961150	 2.649176	-4.859278	 32.932430	-60.642210	 7.927557	 101.200000	 5.715225	 19.176060	-3.692089	 5.027514	 0.245388	-9.378011	-2.350882	 35.473990	 5.254307
